{
  "accessors": [{
      "bufferView": 2,
      "componentType": 5126,
      "count": 65534,
      "max": [
        97.989601135253906,
        321.68600463867188,
        100.572998046875
      ],
      "min": [
        -100.59200286865234,
        13.799900054931641,
        -117.62000274658203
      ],
      "type": "VEC3"
    },
    {
      "bufferView": 2,
      "byteOffset": 786408,
      "componentType": 5126,
      "count": 65534,
      "max": [
        0.99999350309371948,
        0.99936395883560181,
        0.99999606609344482
      ],
      "min": [
        -0.99999719858169556,
        -0.99999940395355225,
        -0.99999946355819702
      ],
      "type": "VEC3"
    },
    {
      "bufferView": 1,
      "componentType": 5126,
      "count": 65534,
      "max": [
        0.9986259937286377,
        0.99862802028656006
      ],
      "min": [
        0.0013667800230905414,
        0.0013667800230905414
      ],
      "type": "VEC2"
    },
    {
      "bufferView": 0,
      "componentType": 5125,
      "count": 294636,
      "max": [
        65533
      ],
      "min": [
        0
      ],
      "type": "SCALAR"
    },
    {
      "bufferView": 2,
      "byteOffset": 1572816,
      "componentType": 5126,
      "count": 1653,
      "max": [
        55.451000213623047,
        297.54901123046875,
        94.902297973632812
      ],
      "min": [
        -100.81600189208984,
        18.77400016784668,
        -77.147598266601562
      ],
      "type": "VEC3"
    },
    {
      "bufferView": 2,
      "byteOffset": 1592652,
      "componentType": 5126,
      "count": 1653,
      "max": [
        0.99087232351303101,
        0.8329923152923584,
        0.97356635332107544
      ],
      "min": [
        -0.99642139673233032,
        -0.99999332427978516,
        -0.9916759729385376
      ],
      "type": "VEC3"
    },
    {
      "bufferView": 1,
      "byteOffset": 524272,
      "componentType": 5126,
      "count": 1653,
      "max": [
        0.9986259937286377,
        0.99860399961471558
      ],
      "min": [
        0.10620199888944626,
        0.09158799797296524
      ],
      "type": "VEC2"
    },
    {
      "bufferView": 0,
      "byteOffset": 1178544,
      "componentType": 5125,
      "count": 5361,
      "max": [
        1652
      ],
      "min": [
        0
      ],
      "type": "SCALAR"
    }
  ],
  "asset": {
    "extras": {
      "author": "Rafael.Kenji.Horota (https://sketchfab.com/Rafael.Kenji.Horota)",
      "license": "CC-BY-4.0 (http://creativecommons.org/licenses/by/4.0/)",
      "source": "https://sketchfab.com/3d-models/yokohama-landmark-tower-1f9675bacfa04b2586812cbb2d6b4ed6",
      "title": "Yokohama - Landmark Tower"
    },
    "generator": "Sketchfab-8.15.0",
    "version": "2.0"
  },
  "bufferViews": [{
      "buffer": 0,
      "byteLength": 1199988,
      "byteOffset": 0,
      "name": "floatBufferViews",
      "target": 34963
    },
    {
      "buffer": 0,
      "byteLength": 537496,
      "byteOffset": 1199988,
      "byteStride": 8,
      "name": "floatBufferViews",
      "target": 34962
    },
    {
      "buffer": 0,
      "byteLength": 1612488,
      "byteOffset": 1737484,
      "byteStride": 12,
      "name": "floatBufferViews",
      "target": 34962
    }
  ],
  "buffers": [{
    "byteLength": 3349972,
    "uri": "scene.bin"
  }],
  "images": [{
    "uri": "textures/texture_baseColor.jpeg"
  }],
  "materials": [{
    "doubleSided": false,
    "emissiveFactor": [
      0,
      0,
      0
    ],
    "name": "texture",
    "pbrMetallicRoughness": {
      "baseColorFactor": [
        1,
        1,
        1,
        1
      ],
      "baseColorTexture": {
        "index": 0,
        "texCoord": 0
      },
      "metallicFactor": 0,
      "roughnessFactor": 0
    }
  }],
  "meshes": [{
      "primitives": [{
        "attributes": {
          "NORMAL": 1,
          "POSITION": 0,
          "TEXCOORD_0": 2
        },
        "indices": 3,
        "material": 0,
        "mode": 4
      }]
    },
    {
      "primitives": [{
        "attributes": {
          "NORMAL": 5,
          "POSITION": 4,
          "TEXCOORD_0": 6
        },
        "indices": 7,
        "material": 0,
        "mode": 4
      }]
    }
  ],
  "nodes": [{
      "children": [
        1
      ],
      "name": "RootNode (gltf orientation matrix)",
      "rotation": [
        -0.70710678118654746,
        -0,
        -0,
        0.70710678118654757
      ]
    },
    {
      "children": [
        2
      ],
      "matrix": [
        1,
        0,
        0,
        0,
        0,
        2.2204460492503131e-16,
        -1,
        0,
        0,
        1,
        2.2204460492503131e-16,
        0,
        0,
        176.26652526855469,
        0,
        1
      ],
      "name": "RootNode (model correction matrix)"
    },
    {
      "children": [
        3,
        4
      ],
      "name": "Landmark Tower_simplified_3d_mesh.obj.cleaner.materialmerger.gles"
    },
    {
      "mesh": 0,
      "name": ""
    },
    {
      "mesh": 1,
      "name": ""
    }
  ],
  "samplers": [{
    "magFilter": 9729,
    "minFilter": 9987,
    "wrapS": 10497,
    "wrapT": 10497
  }],
  "scene": 0,
  "scenes": [{
    "name": "OSG_Scene",
    "nodes": [
      0
    ]
  }],
  "textures": [{
    "sampler": 0,
    "source": 0
  }]
}